<?xml version="1.0" encoding="utf-8"?>
<!-- Generator: Adobe Illustrator 24.3.0, SVG Export Plug-In . SVG Version: 6.00 Build 0)  -->
<svg version="1.1" id="logo" xmlns="http://www.w3.org/2000/svg" xmlns:xlink="http://www.w3.org/1999/xlink" x="0px" y="0px"
	 viewBox="0 0 530 530" style="enable-background:new 0 0 530 530;" xml:space="preserve">
<style type="text/css">
	.st0{fill:#235C96;}
	.st1{fill:#94BA32;}
	.st2{fill:#1E103A;}
</style>
<circle class="st0" cx="264.95" cy="265.11" r="260"/>
<path class="st1" d="M31.57,265.11c0,53.16,16.67,101.55,45.34,141.07l-10.67-75.65L31.57,265.11z M81.58,117.22l30.67-7.5
	c26-38.85,62.68-59.29,96.02-65.43L155.6,81.78l52.01-12.95l37.34-21.13l-10.67-19.08C172.93,36.8,118.26,69.52,81.58,117.22z
	 M115.59,264.43l22,44.98l65.35,6.13l35.34,136.3h43.34l49.34-61.34l-2.67-38.17c21.34-17.04,38.01-38.17,44.68-65.43l-33.34,8.18
	l-43.34-69.52l10-6.82l42.67,61.34l42.01-37.48c-22-2.73-36.67-13.63-42.67-32.71l76.01,12.27l27.34,57.25l12-76.33l34.01,40.89
	c-8.67-100.86-79.35-184.01-172.7-209.23c0,23.17-12.67,42.25-30.67,53.16l-24-14.31l-46.01,27.26l16,15.67l24.67-29.99l-4.67,36.8
	c-30.01,0-44.68,4.77-63.35,14.99l-4,19.08l-20.67-4.77l-8.67,23.85l18,5.45c10-12.95,18-21.13,37.34-25.9l20,22.49l-12,4.09
	l7.33,6.13l10.67-12.95l-15.34-21.81c15.34,0,24,9.54,29.34,33.39l27.34-40.89l33.34,14.31l-3.33,8.86l-39.34,3.41v14.99l30.01,2.04
	l-9.34,24.53c-54.68,0-70.68-1.36-82.02-26.58l-45.34-2.73C136.93,205.82,120.26,232.4,115.59,264.43z M180.27,123.36l26.67,6.82
	v-27.26L180.27,123.36z M328.3,149.94l13.34-7.5l18,38.17l-12,2.73L328.3,149.94z M335.63,421.86l12,4.77l20-47.02l-25.34,16.36
	L335.63,421.86z"/>
<path id="XMLID_237_" class="st2" d="M346.66,366.98c-0.18-1.97-0.62-3.9-1.32-5.75l-25.78-68.45l3.61-23.9l-7.46-0.28
	c-16.86-0.62-28.26-12.74-30.9-20.73l-23.42-70.89l40.06,65.39l0,0l0,0l0,0c3.08,5.03,8.6,8.48,14.9,8.71
	c31.32,1.16,53.79,2.04,69.16,2.66c4.98,0.2,9.82-1.63,13.41-5.08c3.59-3.45,5.64-8.21,5.64-13.19c0-9.89-7.82-18-17.7-18.36
	l-59.37-2.16l0,0l-36.28-59.22l42.83,41.2l5.01-33.17c2.25-14.87-7.98-28.74-22.85-30.99l-48.01-7.26
	c-2.29-0.35-4.55-0.39-6.76-0.18l8.66-33.89c5.25,12.56,16.74,22.16,31.19,24.35c22.01,3.33,42.55-11.82,45.88-33.83
	c3.33-22.01-11.82-42.55-33.83-45.88c-20.41-3.09-39.54,9.72-44.87,29.14c-2.93-4.02-7.23-7.08-12.42-8.41l-57.13-14.6
	c-11.88-3.03-23.96,4.13-27,16.01l-6.29,24.61c-3.04,11.88,4.13,23.96,16.01,27l10.1,2.58c-7.92,1.95-14.47,8.2-16.37,16.7
	l-27.96,124.62c-2.68,11.96,4.84,23.83,16.8,26.52l38.41,8.62c5.26,1.18,10.5,0.39,14.96-1.89c0.15,2.19,0.62,4.39,1.46,6.54
	l27.03,68.94l-53.64,69.94c-7.36,9.6-5.55,23.36,4.05,30.72c9.61,7.37,23.36,5.54,30.72-4.05l61.17-79.75
	c4.67-6.09,5.82-14.19,3.01-21.33l-23.05-58.79c-0.42-1.06-0.23-2.27,0.48-3.16c0.71-0.89,1.84-1.34,2.97-1.17
	c1.14,0.17,2.1,0.95,2.51,2.03l28.99,76.98l9.05,100.17c1.09,12.05,11.73,20.94,23.79,19.85c12.05-1.09,20.94-11.74,19.85-23.79
	L346.66,366.98z"/>
</svg>
